<mxfile host="Electron" modified="2024-03-04T17:17:03.685Z" agent="Mozilla/5.0 (Windows NT 10.0; Win64; x64) AppleWebKit/537.36 (KHTML, like Gecko) draw.io/23.1.5 Chrome/120.0.6099.109 Electron/28.1.0 Safari/537.36" etag="Z1Wc1CvWczCAPnDMPjUk" version="23.1.5" type="device">
  <diagram name="Страница — 1" id="WHh3yTTP_0HmJrlEDd75">
    <mxGraphModel dx="2603" dy="844" grid="1" gridSize="10" guides="1" tooltips="1" connect="1" arrows="1" fold="1" page="1" pageScale="1" pageWidth="1169" pageHeight="827" math="0" shadow="0">
      <root>
        <mxCell id="0" />
        <mxCell id="1" parent="0" />
        <mxCell id="0yxRiIUL492FLNZ3sACY-5" value="" style="edgeStyle=orthogonalEdgeStyle;rounded=0;orthogonalLoop=1;jettySize=auto;html=1;" edge="1" parent="1" source="0yxRiIUL492FLNZ3sACY-1" target="0yxRiIUL492FLNZ3sACY-4">
          <mxGeometry relative="1" as="geometry" />
        </mxCell>
        <mxCell id="0yxRiIUL492FLNZ3sACY-7" value="" style="edgeStyle=orthogonalEdgeStyle;rounded=0;orthogonalLoop=1;jettySize=auto;html=1;" edge="1" parent="1" source="0yxRiIUL492FLNZ3sACY-1" target="0yxRiIUL492FLNZ3sACY-6">
          <mxGeometry relative="1" as="geometry" />
        </mxCell>
        <mxCell id="0yxRiIUL492FLNZ3sACY-1" value="Клиент" style="ellipse;whiteSpace=wrap;html=1;aspect=fixed;fillColor=#d5e8d4;strokeColor=#82b366;" vertex="1" parent="1">
          <mxGeometry x="35" y="510" width="50" height="50" as="geometry" />
        </mxCell>
        <mxCell id="0yxRiIUL492FLNZ3sACY-9" value="" style="edgeStyle=orthogonalEdgeStyle;rounded=0;orthogonalLoop=1;jettySize=auto;html=1;" edge="1" parent="1" source="0yxRiIUL492FLNZ3sACY-4" target="0yxRiIUL492FLNZ3sACY-8">
          <mxGeometry relative="1" as="geometry" />
        </mxCell>
        <mxCell id="0yxRiIUL492FLNZ3sACY-4" value="Зак через онлайн магазин" style="whiteSpace=wrap;html=1;fillColor=#dae8fc;strokeColor=#6c8ebf;" vertex="1" parent="1">
          <mxGeometry y="450" width="120" height="30" as="geometry" />
        </mxCell>
        <mxCell id="0yxRiIUL492FLNZ3sACY-46" value="" style="edgeStyle=orthogonalEdgeStyle;rounded=0;orthogonalLoop=1;jettySize=auto;html=1;" edge="1" parent="1" source="0yxRiIUL492FLNZ3sACY-6" target="0yxRiIUL492FLNZ3sACY-45">
          <mxGeometry relative="1" as="geometry" />
        </mxCell>
        <mxCell id="0yxRiIUL492FLNZ3sACY-48" value="" style="edgeStyle=orthogonalEdgeStyle;rounded=0;orthogonalLoop=1;jettySize=auto;html=1;" edge="1" parent="1" source="0yxRiIUL492FLNZ3sACY-6" target="0yxRiIUL492FLNZ3sACY-47">
          <mxGeometry relative="1" as="geometry" />
        </mxCell>
        <mxCell id="0yxRiIUL492FLNZ3sACY-6" value="заказ через офлайн магазин" style="whiteSpace=wrap;html=1;fillColor=#fff2cc;strokeColor=#d6b656;" vertex="1" parent="1">
          <mxGeometry y="590" width="120" height="30" as="geometry" />
        </mxCell>
        <mxCell id="0yxRiIUL492FLNZ3sACY-13" value="" style="edgeStyle=orthogonalEdgeStyle;rounded=0;orthogonalLoop=1;jettySize=auto;html=1;" edge="1" parent="1" source="0yxRiIUL492FLNZ3sACY-8" target="0yxRiIUL492FLNZ3sACY-12">
          <mxGeometry relative="1" as="geometry" />
        </mxCell>
        <mxCell id="0yxRiIUL492FLNZ3sACY-8" value="обработка заказа" style="whiteSpace=wrap;html=1;" vertex="1" parent="1">
          <mxGeometry y="400" width="120" height="25" as="geometry" />
        </mxCell>
        <mxCell id="0yxRiIUL492FLNZ3sACY-17" value="" style="edgeStyle=orthogonalEdgeStyle;rounded=0;orthogonalLoop=1;jettySize=auto;html=1;" edge="1" parent="1" source="0yxRiIUL492FLNZ3sACY-12" target="0yxRiIUL492FLNZ3sACY-16">
          <mxGeometry relative="1" as="geometry" />
        </mxCell>
        <mxCell id="0yxRiIUL492FLNZ3sACY-19" value="" style="edgeStyle=orthogonalEdgeStyle;rounded=0;orthogonalLoop=1;jettySize=auto;html=1;" edge="1" parent="1" source="0yxRiIUL492FLNZ3sACY-12" target="0yxRiIUL492FLNZ3sACY-18">
          <mxGeometry relative="1" as="geometry" />
        </mxCell>
        <mxCell id="0yxRiIUL492FLNZ3sACY-12" value="подтверждение заказа" style="whiteSpace=wrap;html=1;" vertex="1" parent="1">
          <mxGeometry y="350" width="120" height="25" as="geometry" />
        </mxCell>
        <mxCell id="0yxRiIUL492FLNZ3sACY-33" value="" style="edgeStyle=orthogonalEdgeStyle;rounded=0;orthogonalLoop=1;jettySize=auto;html=1;" edge="1" parent="1" source="0yxRiIUL492FLNZ3sACY-16" target="0yxRiIUL492FLNZ3sACY-32">
          <mxGeometry relative="1" as="geometry" />
        </mxCell>
        <mxCell id="0yxRiIUL492FLNZ3sACY-16" value="оплата онлайн" style="whiteSpace=wrap;html=1;fontStyle=1" vertex="1" parent="1">
          <mxGeometry y="300" width="65" height="25" as="geometry" />
        </mxCell>
        <mxCell id="0yxRiIUL492FLNZ3sACY-21" value="" style="edgeStyle=orthogonalEdgeStyle;rounded=0;orthogonalLoop=1;jettySize=auto;html=1;" edge="1" parent="1" source="0yxRiIUL492FLNZ3sACY-18" target="0yxRiIUL492FLNZ3sACY-20">
          <mxGeometry relative="1" as="geometry" />
        </mxCell>
        <mxCell id="0yxRiIUL492FLNZ3sACY-18" value="оплата наличными" style="whiteSpace=wrap;html=1;fontStyle=1" vertex="1" parent="1">
          <mxGeometry x="75" y="300" width="70" height="25" as="geometry" />
        </mxCell>
        <mxCell id="0yxRiIUL492FLNZ3sACY-23" value="" style="edgeStyle=orthogonalEdgeStyle;rounded=0;orthogonalLoop=1;jettySize=auto;html=1;" edge="1" parent="1" source="0yxRiIUL492FLNZ3sACY-20" target="0yxRiIUL492FLNZ3sACY-22">
          <mxGeometry relative="1" as="geometry" />
        </mxCell>
        <mxCell id="0yxRiIUL492FLNZ3sACY-20" value="отправка заказа на склад" style="whiteSpace=wrap;html=1;" vertex="1" parent="1">
          <mxGeometry x="200" y="300" width="65" height="42.5" as="geometry" />
        </mxCell>
        <mxCell id="0yxRiIUL492FLNZ3sACY-25" value="" style="edgeStyle=orthogonalEdgeStyle;rounded=0;orthogonalLoop=1;jettySize=auto;html=1;" edge="1" parent="1" source="0yxRiIUL492FLNZ3sACY-22" target="0yxRiIUL492FLNZ3sACY-24">
          <mxGeometry relative="1" as="geometry" />
        </mxCell>
        <mxCell id="0yxRiIUL492FLNZ3sACY-22" value="отправка в отдел доставки" style="whiteSpace=wrap;html=1;" vertex="1" parent="1">
          <mxGeometry x="275" y="300" width="70" height="40" as="geometry" />
        </mxCell>
        <mxCell id="0yxRiIUL492FLNZ3sACY-29" value="" style="edgeStyle=orthogonalEdgeStyle;rounded=0;orthogonalLoop=1;jettySize=auto;html=1;" edge="1" parent="1" source="0yxRiIUL492FLNZ3sACY-24" target="0yxRiIUL492FLNZ3sACY-28">
          <mxGeometry relative="1" as="geometry" />
        </mxCell>
        <mxCell id="0yxRiIUL492FLNZ3sACY-24" value="доставка курьером" style="whiteSpace=wrap;html=1;" vertex="1" parent="1">
          <mxGeometry x="375" y="300" width="70" height="40" as="geometry" />
        </mxCell>
        <mxCell id="0yxRiIUL492FLNZ3sACY-31" value="" style="edgeStyle=orthogonalEdgeStyle;rounded=0;orthogonalLoop=1;jettySize=auto;html=1;" edge="1" parent="1" source="0yxRiIUL492FLNZ3sACY-26" target="0yxRiIUL492FLNZ3sACY-30">
          <mxGeometry relative="1" as="geometry" />
        </mxCell>
        <mxCell id="0yxRiIUL492FLNZ3sACY-26" value="доставка в офлайн магазин" style="html=1;whiteSpace=wrap;" vertex="1" parent="1">
          <mxGeometry x="375" y="360" width="70" height="40" as="geometry" />
        </mxCell>
        <mxCell id="0yxRiIUL492FLNZ3sACY-27" value="" style="endArrow=classic;html=1;rounded=0;" edge="1" parent="1">
          <mxGeometry width="50" height="50" relative="1" as="geometry">
            <mxPoint x="335" y="340" as="sourcePoint" />
            <mxPoint x="375" y="370" as="targetPoint" />
            <Array as="points">
              <mxPoint x="335" y="340" />
            </Array>
          </mxGeometry>
        </mxCell>
        <mxCell id="0yxRiIUL492FLNZ3sACY-28" value="заказ доставлен" style="whiteSpace=wrap;html=1;fillColor=#f8cecc;strokeColor=#b85450;" vertex="1" parent="1">
          <mxGeometry x="480" y="300" width="70" height="40" as="geometry" />
        </mxCell>
        <mxCell id="0yxRiIUL492FLNZ3sACY-30" value="заказ доставлен" style="html=1;whiteSpace=wrap;fillColor=#f8cecc;strokeColor=#b85450;" vertex="1" parent="1">
          <mxGeometry x="480" y="360" width="70" height="40" as="geometry" />
        </mxCell>
        <mxCell id="0yxRiIUL492FLNZ3sACY-35" value="" style="edgeStyle=orthogonalEdgeStyle;rounded=0;orthogonalLoop=1;jettySize=auto;html=1;" edge="1" parent="1" source="0yxRiIUL492FLNZ3sACY-32" target="0yxRiIUL492FLNZ3sACY-34">
          <mxGeometry relative="1" as="geometry" />
        </mxCell>
        <mxCell id="0yxRiIUL492FLNZ3sACY-32" value="оплата подтверждена" style="whiteSpace=wrap;html=1;" vertex="1" parent="1">
          <mxGeometry y="220" width="80" height="45" as="geometry" />
        </mxCell>
        <mxCell id="0yxRiIUL492FLNZ3sACY-37" value="" style="edgeStyle=orthogonalEdgeStyle;rounded=0;orthogonalLoop=1;jettySize=auto;html=1;" edge="1" parent="1" source="0yxRiIUL492FLNZ3sACY-34" target="0yxRiIUL492FLNZ3sACY-36">
          <mxGeometry relative="1" as="geometry" />
        </mxCell>
        <mxCell id="0yxRiIUL492FLNZ3sACY-34" value="передача информации о заказе на склад" style="whiteSpace=wrap;html=1;" vertex="1" parent="1">
          <mxGeometry x="-5" y="130" width="80" height="65" as="geometry" />
        </mxCell>
        <mxCell id="0yxRiIUL492FLNZ3sACY-36" value="передача заказа в службу доставки" style="whiteSpace=wrap;html=1;" vertex="1" parent="1">
          <mxGeometry x="155" y="130" width="80" height="65" as="geometry" />
        </mxCell>
        <mxCell id="0yxRiIUL492FLNZ3sACY-38" value="" style="endArrow=classic;html=1;rounded=0;entryX=0;entryY=0.5;entryDx=0;entryDy=0;" edge="1" parent="1" target="0yxRiIUL492FLNZ3sACY-40">
          <mxGeometry width="50" height="50" relative="1" as="geometry">
            <mxPoint x="235" y="140" as="sourcePoint" />
            <mxPoint x="285" y="90" as="targetPoint" />
          </mxGeometry>
        </mxCell>
        <mxCell id="0yxRiIUL492FLNZ3sACY-39" value="" style="endArrow=classic;html=1;rounded=0;entryX=0;entryY=0.5;entryDx=0;entryDy=0;entryPerimeter=0;" edge="1" parent="1" target="0yxRiIUL492FLNZ3sACY-41">
          <mxGeometry width="50" height="50" relative="1" as="geometry">
            <mxPoint x="235" y="160" as="sourcePoint" />
            <mxPoint x="280" y="180" as="targetPoint" />
          </mxGeometry>
        </mxCell>
        <mxCell id="0yxRiIUL492FLNZ3sACY-40" value="доставка курьером" style="rounded=0;whiteSpace=wrap;html=1;" vertex="1" parent="1">
          <mxGeometry x="290" y="70" width="120" height="40" as="geometry" />
        </mxCell>
        <mxCell id="0yxRiIUL492FLNZ3sACY-41" value="доставка в офлайн магазин" style="rounded=0;whiteSpace=wrap;html=1;" vertex="1" parent="1">
          <mxGeometry x="290" y="165" width="120" height="30" as="geometry" />
        </mxCell>
        <mxCell id="0yxRiIUL492FLNZ3sACY-42" value="" style="endArrow=classic;html=1;rounded=0;entryX=0;entryY=0.75;entryDx=0;entryDy=0;" edge="1" parent="1" target="0yxRiIUL492FLNZ3sACY-44">
          <mxGeometry width="50" height="50" relative="1" as="geometry">
            <mxPoint x="410" y="177.5" as="sourcePoint" />
            <mxPoint x="470" y="147.5" as="targetPoint" />
          </mxGeometry>
        </mxCell>
        <mxCell id="0yxRiIUL492FLNZ3sACY-43" value="" style="endArrow=classic;html=1;rounded=0;entryX=0;entryY=0.25;entryDx=0;entryDy=0;" edge="1" parent="1" target="0yxRiIUL492FLNZ3sACY-44">
          <mxGeometry width="50" height="50" relative="1" as="geometry">
            <mxPoint x="410" y="80" as="sourcePoint" />
            <mxPoint x="470" y="100" as="targetPoint" />
          </mxGeometry>
        </mxCell>
        <mxCell id="0yxRiIUL492FLNZ3sACY-44" value="заказ получен" style="rounded=0;whiteSpace=wrap;html=1;fillColor=#f8cecc;strokeColor=#b85450;" vertex="1" parent="1">
          <mxGeometry x="470" y="100" width="80" height="50" as="geometry" />
        </mxCell>
        <mxCell id="0yxRiIUL492FLNZ3sACY-50" value="" style="edgeStyle=orthogonalEdgeStyle;rounded=0;orthogonalLoop=1;jettySize=auto;html=1;" edge="1" parent="1" source="0yxRiIUL492FLNZ3sACY-45" target="0yxRiIUL492FLNZ3sACY-49">
          <mxGeometry relative="1" as="geometry" />
        </mxCell>
        <mxCell id="0yxRiIUL492FLNZ3sACY-45" value="товара нет" style="whiteSpace=wrap;html=1;" vertex="1" parent="1">
          <mxGeometry y="640" width="80" height="30" as="geometry" />
        </mxCell>
        <mxCell id="0yxRiIUL492FLNZ3sACY-55" value="" style="edgeStyle=orthogonalEdgeStyle;rounded=0;orthogonalLoop=1;jettySize=auto;html=1;" edge="1" parent="1" source="0yxRiIUL492FLNZ3sACY-47" target="0yxRiIUL492FLNZ3sACY-51">
          <mxGeometry relative="1" as="geometry" />
        </mxCell>
        <mxCell id="0yxRiIUL492FLNZ3sACY-47" value="товар есть" style="whiteSpace=wrap;html=1;" vertex="1" parent="1">
          <mxGeometry x="145" y="590" width="65" height="30" as="geometry" />
        </mxCell>
        <mxCell id="0yxRiIUL492FLNZ3sACY-49" value="запрос в отдел закупок" style="whiteSpace=wrap;html=1;" vertex="1" parent="1">
          <mxGeometry y="690" width="80" height="30" as="geometry" />
        </mxCell>
        <mxCell id="0yxRiIUL492FLNZ3sACY-57" value="" style="edgeStyle=orthogonalEdgeStyle;rounded=0;orthogonalLoop=1;jettySize=auto;html=1;" edge="1" parent="1" source="0yxRiIUL492FLNZ3sACY-51" target="0yxRiIUL492FLNZ3sACY-56">
          <mxGeometry relative="1" as="geometry" />
        </mxCell>
        <mxCell id="0yxRiIUL492FLNZ3sACY-51" value="заказ подтвержден" style="whiteSpace=wrap;html=1;" vertex="1" parent="1">
          <mxGeometry x="235" y="590" width="95" height="30" as="geometry" />
        </mxCell>
        <mxCell id="0yxRiIUL492FLNZ3sACY-63" value="" style="edgeStyle=orthogonalEdgeStyle;rounded=0;orthogonalLoop=1;jettySize=auto;html=1;entryX=0.354;entryY=0;entryDx=0;entryDy=0;entryPerimeter=0;" edge="1" parent="1" source="0yxRiIUL492FLNZ3sACY-56" target="0yxRiIUL492FLNZ3sACY-66">
          <mxGeometry relative="1" as="geometry">
            <mxPoint x="472.5" y="635" as="targetPoint" />
          </mxGeometry>
        </mxCell>
        <mxCell id="0yxRiIUL492FLNZ3sACY-65" style="edgeStyle=orthogonalEdgeStyle;rounded=0;orthogonalLoop=1;jettySize=auto;html=1;" edge="1" parent="1" source="0yxRiIUL492FLNZ3sACY-56">
          <mxGeometry relative="1" as="geometry">
            <mxPoint x="440" y="570" as="targetPoint" />
          </mxGeometry>
        </mxCell>
        <mxCell id="0yxRiIUL492FLNZ3sACY-56" value="оплата наличными" style="whiteSpace=wrap;html=1;" vertex="1" parent="1">
          <mxGeometry x="345" y="590" width="85" height="30" as="geometry" />
        </mxCell>
        <mxCell id="0yxRiIUL492FLNZ3sACY-58" value="доставка в офлайн магазин" style="whiteSpace=wrap;html=1;" vertex="1" parent="1">
          <mxGeometry x="440" y="550" width="95" height="30" as="geometry" />
        </mxCell>
        <mxCell id="0yxRiIUL492FLNZ3sACY-66" value="доставка курьером" style="rounded=0;whiteSpace=wrap;html=1;" vertex="1" parent="1">
          <mxGeometry x="430" y="660" width="80" height="40" as="geometry" />
        </mxCell>
        <mxCell id="0yxRiIUL492FLNZ3sACY-67" value="заказ получен" style="rounded=0;whiteSpace=wrap;html=1;fillColor=#f8cecc;strokeColor=#b85450;" vertex="1" parent="1">
          <mxGeometry x="560" y="600" width="80" height="60" as="geometry" />
        </mxCell>
        <mxCell id="0yxRiIUL492FLNZ3sACY-68" value="" style="endArrow=classic;html=1;rounded=0;" edge="1" parent="1">
          <mxGeometry width="50" height="50" relative="1" as="geometry">
            <mxPoint x="500" y="580" as="sourcePoint" />
            <mxPoint x="560" y="620" as="targetPoint" />
          </mxGeometry>
        </mxCell>
        <mxCell id="0yxRiIUL492FLNZ3sACY-69" value="" style="endArrow=classic;html=1;rounded=0;" edge="1" parent="1">
          <mxGeometry width="50" height="50" relative="1" as="geometry">
            <mxPoint x="510" y="690" as="sourcePoint" />
            <mxPoint x="560" y="640" as="targetPoint" />
          </mxGeometry>
        </mxCell>
        <mxCell id="0yxRiIUL492FLNZ3sACY-70" value="отмена заказа возможна на любом этапе" style="rounded=0;whiteSpace=wrap;html=1;fillColor=#e1d5e7;strokeColor=#9673a6;" vertex="1" parent="1">
          <mxGeometry x="740" y="332.5" width="120" height="60" as="geometry" />
        </mxCell>
      </root>
    </mxGraphModel>
  </diagram>
</mxfile>
